<svg xmlns="http://www.w3.org/2000/svg" viewBox="0 0 24 24">
<path d="M14.59,14.13a1.79,1.79,0,0,1,.35,1.13,1.65,1.65,0,0,1-.85,1.51,4.07,4.07,0,0,1-2.18.52,6.3,6.3,0,0,1-3.76-1.22A.34.34,0,0,0,8,16l-.12,0a.87.87,0,0,0-.63.38,1.13,1.13,0,0,0-.31.72.9.9,0,0,0,0,.18.45.45,0,0,0,.1.14A6.9,6.9,0,0,0,11.85,19a7.29,7.29,0,0,0,2.73-.46,3.86,3.86,0,0,0,1.81-1.35A3.56,3.56,0,0,0,17,15.06a4,4,0,0,0-.11-.94Z" />
<path d="M20.11,11.79a.91.91,0,0,0-.87-.37H13.86l-.28-.1-2.86-.92A3,3,0,0,1,9.5,9.72a1.61,1.61,0,0,1-.38-1.11,1.53,1.53,0,0,1,.82-1.43,4.46,4.46,0,0,1,2.2-.47,6.38,6.38,0,0,1,3.31,1,.8.8,0,0,0,.43.13.74.74,0,0,0,.58-.27.92.92,0,0,0,.23-.6.65.65,0,0,0-.23-.51,5.6,5.6,0,0,0-1.9-1A7.93,7.93,0,0,0,12,5a6.85,6.85,0,0,0-2.51.43A3.94,3.94,0,0,0,7.71,6.71a3.11,3.11,0,0,0-.66,2,3.06,3.06,0,0,0,.73,2.16,3.72,3.72,0,0,0,.7.58H5.12a4.46,4.46,0,0,0-.67.05.82.82,0,0,0-.54.3.38.38,0,0,0,0,.43.71.71,0,0,0,.44.29,2.74,2.74,0,0,0,.8.08l13.77,0a3.42,3.42,0,0,0,.7-.05.75.75,0,0,0,.5-.29A.39.39,0,0,0,20.11,11.79Z" />
</svg>