<svg xmlns="http://www.w3.org/2000/svg" viewBox="0 0 24 24">
<path d="M12,4a8,8,0,1,0,8,8A8,8,0,0,0,12,4Zm0,14.5A6.5,6.5,0,1,1,18.5,12,6.51,6.51,0,0,1,12,18.5Z" />
<path d="M9.1,8.85a.75.75,0,0,0-.75.75v2a.75.75,0,0,0,1.5,0v-2A.75.75,0,0,0,9.1,8.85Z" />
<path d="M14.9,8.85a.75.75,0,0,0-.75.75v2a.75.75,0,0,0,1.5,0v-2A.75.75,0,0,0,14.9,8.85Z"/>
<path d="M12.74,13.92,12,14.5l-.74-.58a.75.75,0,0,0-1,.14.74.74,0,0,0,.13,1l1.2.93a.78.78,0,0,0,.92,0l1.2-.93a.74.74,0,0,0,.13-1A.75.75,0,0,0,12.74,13.92Z" />
</svg>