<svg xmlns="http://www.w3.org/2000/svg" viewBox="0 0 24 24" >
<path d="M14,16.07,12.11,18a4.08,4.08,0,0,1-5.74-.35A4.08,4.08,0,0,1,6,11.89L7.93,10a.67.67,0,0,1,1,.06.68.68,0,0,1,.06,1L7,12.9a2.72,2.72,0,0,0,.23,3.83A2.72,2.72,0,0,0,11.1,17l1.9-1.9a.68.68,0,0,1,1,.06A.67.67,0,0,1,14,16.07Z"/>
<path d="M18,12.11,16.07,14a.67.67,0,0,1-1-.06.68.68,0,0,1-.06-1L17,11.1a2.72,2.72,0,0,0-.23-3.83A2.72,2.72,0,0,0,12.9,7L11,8.94a.68.68,0,0,1-1-.06.67.67,0,0,1-.06-1L11.89,6a4.08,4.08,0,0,1,5.74.35A4.08,4.08,0,0,1,18,12.11Z"/>
<rect x="8.57" y="11.28" width="6.86" height="1.44" rx="0.72" transform="translate(-4.97 12) rotate(-45)" />
<path d="M13.92,9.36a.71.71,0,0,0-.51.21L9.57,13.41a.72.72,0,0,0,0,1,.75.75,0,0,0,.51.21.71.71,0,0,0,.51-.21l3.84-3.84a.72.72,0,0,0-.51-1.23Z" />
</svg>