<svg xmlns="http://www.w3.org/2000/svg" viewBox="0 0 24 24">
<path d="M14.55,13.23H9.49l-.83,2.14a.77.77,0,0,1-.78.55.93.93,0,0,1-.45-.11.67.67,0,0,1-.4-.62.75.75,0,0,1,.06-.29l3.53-8.8a1.93,1.93,0,0,1,.59-.88,1.6,1.6,0,0,1,1.62,0,1.93,1.93,0,0,1,.59.88L17,14.9a.79.79,0,0,1,.06.29.58.58,0,0,1-.13.38.77.77,0,0,1-.31.26,1,1,0,0,1-.41.09.91.91,0,0,1-.78-.55ZM12,6.65,10,12h4.14Z" style="fill: rgb(136, 136, 136)" />
<rect x="11.24" y="12.12" width="1.53" height="12.24" rx="0.4" transform="translate(-6.24 30.24) rotate(-90)" />
</svg>